<?xml version="1.0" encoding="utf-8"?>
<!-- Generator: Adobe Illustrator 18.1.1, SVG Export Plug-In . SVG Version: 6.00 Build 0)  -->
<svg version="1.1" id="Layer_1" xmlns="http://www.w3.org/2000/svg" xmlns:xlink="http://www.w3.org/1999/xlink" x="0px" y="0px"
	 width="13.9px" height="12.9px" viewBox="-1268 1476.4 13.9 12.9" enable-background="new -1268 1476.4 13.9 12.9"
	 xml:space="preserve">
<g>
	<path fill="#3B3B3B" d="M-1262.7,1487c-2.9,0-5.3-2.4-5.3-5.3s2.4-5.3,5.3-5.3c2.9,0,5.3,2.4,5.3,5.3S-1259.8,1487-1262.7,1487z
		 M-1262.7,1478.4c-1.8,0-3.3,1.5-3.3,3.3s1.5,3.3,3.3,3.3c1.8,0,3.3-1.5,3.3-3.3S-1260.9,1478.4-1262.7,1478.4z"/>
	<path fill="#3B3B3B" d="M-1255.1,1489.3c-0.2,0-0.5-0.1-0.7-0.2l-4.3-3.7c-0.4-0.4-0.4-1-0.1-1.4c0.4-0.4,1-0.5,1.4-0.1l4.3,3.7
		c0.4,0.4,0.5,1,0.1,1.4C-1254.6,1489.2-1254.9,1489.3-1255.1,1489.3z"/>
</g>
</svg>
